<svg width="80" height="80" viewBox="0 0 80 80" fill="none" xmlns="http://www.w3.org/2000/svg">
<path fill-rule="evenodd" clip-rule="evenodd" d="M56.0016 10.0007C56.0016 7.06279 58.397 4.66736 61.3349 4.66736H66.6681C69.606 4.66736 72.0015 7.06279 72.0015 10.0007V60.0007C72.0015 62.9386 69.606 65.334 66.6681 65.334H61.3349C58.397 65.334 56.0016 62.9386 56.0016 60.0007V10.0007ZM61.3349 8.66736C60.6061 8.66736 60.0016 9.27193 60.0016 10.0007V60.0007C60.0016 60.7295 60.6061 61.334 61.3349 61.334H66.6681C67.3969 61.334 68.0015 60.7295 68.0015 60.0007V10.0007C68.0015 9.27193 67.3969 8.66736 66.6681 8.66736H61.3349ZM31.9969 20.6351C31.9969 17.6972 34.3923 15.3017 37.3302 15.3017H42.6635C45.6014 15.3017 47.9968 17.6972 47.9968 20.6351V60.0017C47.9968 62.9396 45.6014 65.3351 42.6635 65.3351H37.3302C34.3923 65.3351 31.9969 62.9396 31.9969 60.0017V20.6351ZM37.3302 19.3017C36.6014 19.3017 35.9969 19.9063 35.9969 20.6351V60.0017C35.9969 60.7305 36.6014 61.3351 37.3302 61.3351H42.6635C43.3922 61.3351 43.9968 60.7305 43.9968 60.0017V20.6351C43.9968 19.9063 43.3922 19.3017 42.6635 19.3017H37.3302ZM8 31.2679C8 28.33 10.3954 25.9345 13.3333 25.9345H18.6666C21.6045 25.9345 23.9999 28.33 23.9999 31.2679V60.0012C23.9999 62.9391 21.6045 65.3345 18.6666 65.3345H13.3333C10.3954 65.3345 8 62.9391 8 60.0012V31.2679ZM13.3333 29.9345C12.6046 29.9345 12 30.5391 12 31.2679V60.0012C12 60.73 12.6046 61.3345 13.3333 61.3345H18.6666C19.3953 61.3345 19.9999 60.73 19.9999 60.0012V31.2679C19.9999 30.5391 19.3953 29.9345 18.6666 29.9345H13.3333ZM8 73.3344C8 72.2298 8.89543 71.3344 10 71.3344H70C71.1046 71.3344 72 72.2298 72 73.3344C72 74.4389 71.1046 75.3344 70 75.3344H10C8.89543 75.3344 8 74.4389 8 73.3344Z" fill="url(#paint0_linear_19_36)"/>
<defs>
<linearGradient id="paint0_linear_19_36" x1="77.1415" y1="87.2087" x2="2.17794" y2="74.0515" gradientUnits="userSpaceOnUse">
<stop stop-color="#E5006D"/>
<stop offset="0.1671" stop-color="#C90171"/>
<stop offset="0.4658" stop-color="#961975"/>
<stop offset="0.714" stop-color="#6F1F78"/>
<stop offset="0.899" stop-color="#56207A"/>
<stop offset="1" stop-color="#4C217A"/>
</linearGradient>
</defs>
</svg>
