<svg width="190" height="190" viewBox="0 0 190 190" fill="none" xmlns="http://www.w3.org/2000/svg">
<path d="M185.886 97.2359L185.56 102.859L177.573 102.395L177.62 101.597L184.824 102.014L185.057 97.9892L181.207 97.766C179.951 97.6931 179.075 97.4126 178.579 96.9245C178.084 96.4363 177.894 95.7575 178.008 94.888L178.759 94.9315C178.668 95.578 178.816 96.0621 179.204 96.3837C179.59 96.716 180.274 96.9105 181.253 96.9673L185.886 97.2359Z" fill="white"/>
<path d="M178.485 107.029L184.044 113.26L183.915 113.952L176.051 112.483L176.201 111.68L182.696 112.895L177.134 106.679L177.263 105.987L185.127 107.457L184.98 108.243L178.485 107.029Z" fill="white"/>
<path d="M177.222 122.818L181.137 124.074L180.888 124.851L173.27 122.408L173.519 121.631L176.505 122.589C176.385 121.811 176.464 120.985 176.744 120.111C177.056 119.136 177.526 118.458 178.152 118.076C178.778 117.694 179.518 117.64 180.371 117.914L182.854 118.71L182.61 119.472L180.127 118.676C178.847 118.265 177.967 118.812 177.485 120.315C177.222 121.138 177.134 121.972 177.222 122.818Z" fill="white"/>
<path d="M173.5 133.206L176.775 134.738L176.429 135.478L169.183 132.087L169.529 131.348L172.804 132.88L174.917 128.358L171.642 126.825L171.981 126.1L179.227 129.491L178.888 130.216L175.613 128.683L173.5 133.206Z" fill="white"/>
<path d="M165.229 138.755C165.862 137.768 166.737 137.144 167.853 136.885C168.973 136.64 170.026 136.835 171.014 137.469C172.001 138.102 172.613 138.977 172.848 140.091C173.093 141.212 172.896 142.27 172.257 143.267C171.63 144.246 170.756 144.858 169.637 145.102C168.52 145.362 167.468 145.174 166.481 144.541C165.502 143.913 164.889 143.031 164.641 141.896C164.411 140.772 164.607 139.725 165.229 138.755ZM168.013 137.672C167.1 137.872 166.387 138.371 165.875 139.17C165.368 139.961 165.215 140.813 165.415 141.727C165.611 142.626 166.113 143.335 166.921 143.854C167.729 144.372 168.582 144.533 169.481 144.337C170.394 144.137 171.104 143.643 171.611 142.852C172.123 142.053 172.279 141.196 172.08 140.282C171.883 139.383 171.381 138.674 170.573 138.156C169.765 137.637 168.912 137.476 168.013 137.672Z" fill="white"/>
<path d="M155.047 151.942C155.864 151.1 156.845 150.663 157.991 150.632C159.137 150.615 160.131 151.016 160.972 151.833C161.813 152.651 162.238 153.63 162.247 154.769C162.264 155.916 161.86 156.914 161.036 157.764C160.226 158.598 159.248 159.024 158.102 159.04C156.956 159.072 155.963 158.679 155.121 157.861C154.288 157.051 153.862 156.065 153.846 154.903C153.844 153.756 154.244 152.769 155.047 151.942ZM157.991 151.435C157.057 151.449 156.259 151.796 155.597 152.478C154.944 153.151 154.624 153.956 154.637 154.891C154.651 155.812 155.001 156.606 155.69 157.276C156.378 157.945 157.182 158.273 158.102 158.259C159.037 158.246 159.831 157.902 160.485 157.228C161.146 156.547 161.47 155.739 161.456 154.803C161.443 153.883 161.092 153.088 160.404 152.419C159.715 151.75 158.911 151.422 157.991 151.435Z" fill="white"/>
<path d="M155.172 163.287L150.023 167.454L149.53 166.844L151.794 165.012L147.259 159.399L147.881 158.896L152.416 164.509L154.679 162.677L155.172 163.287Z" fill="white"/>
<path d="M139.799 164.595C140.764 163.985 141.777 163.793 142.84 164.018C143.899 164.257 144.753 164.891 145.401 165.92C146.112 167.047 146.499 168.021 146.561 168.839C146.617 169.687 146.292 170.681 145.586 171.821L145.078 172.577C144.587 173.278 144.302 173.704 144.221 173.856C144.026 174.207 143.905 174.516 143.86 174.784C143.821 175.062 143.871 175.351 144.011 175.654L143.274 175.684C143.055 175.117 143.07 174.551 143.321 173.989C143.437 173.752 143.567 173.5 143.713 173.231C143.831 173.018 144.024 172.725 144.294 172.353L144.879 171.51C145.362 170.776 145.649 170.141 145.739 169.605C145.829 169.068 145.738 168.464 145.465 167.791C145.46 168.463 145.289 169.081 144.952 169.647C144.616 170.213 144.177 170.667 143.636 171.009C142.734 171.578 141.798 171.753 140.827 171.534C139.856 171.314 139.08 170.744 138.5 169.824C137.925 168.913 137.761 167.963 138.008 166.975C138.237 165.997 138.834 165.204 139.799 164.595ZM140.225 165.271C139.468 165.75 138.991 166.373 138.794 167.141C138.608 167.926 138.741 168.676 139.19 169.388C139.651 170.119 140.264 170.571 141.029 170.744C141.793 170.917 142.55 170.767 143.299 170.294C143.984 169.862 144.465 169.255 144.742 168.474C145.01 167.699 144.955 166.952 144.577 166.232C144.093 165.465 143.439 164.989 142.616 164.802C141.807 164.62 141.01 164.776 140.225 165.271Z" fill="white"/>
<path d="M133.475 170.157L131.619 178.3L130.98 178.596L127.621 171.336L128.361 170.993L131.136 176.99L132.977 168.853L133.616 168.557L136.976 175.818L136.25 176.154L133.475 170.157Z" fill="white"/>
<path d="M122.06 182.056C120.958 182.391 119.906 182.287 118.905 181.744C117.897 181.214 117.223 180.388 116.882 179.265C116.541 178.142 116.641 177.075 117.181 176.064C117.714 175.065 118.532 174.399 119.634 174.064C120.359 173.843 121.063 173.813 121.747 173.973C122.424 174.147 123.013 174.491 123.516 175.007L122.047 170.169L122.812 169.937L126.066 180.654L125.3 180.887L124.761 179.111C124.631 179.819 124.331 180.429 123.862 180.939C123.385 181.463 122.785 181.835 122.06 182.056ZM122.503 175.031C121.678 174.591 120.811 174.509 119.903 174.785C119.005 175.058 118.336 175.607 117.895 176.432C117.454 177.257 117.372 178.124 117.648 179.032C117.923 179.941 118.474 180.615 119.299 181.056C120.123 181.496 120.985 181.58 121.883 181.307C122.791 181.031 123.466 180.48 123.906 179.655C124.34 178.843 124.417 177.978 124.138 177.059C123.859 176.14 123.314 175.464 122.503 175.031Z" fill="white"/>
<path d="M106.526 183.454L106.803 185.241L105.996 185.366L104.77 177.461L105.576 177.336L105.853 179.122C106.106 178.457 106.501 177.904 107.037 177.465C107.574 177.025 108.211 176.748 108.949 176.634C110.066 176.46 111.092 176.705 112.026 177.37C112.951 178.047 113.504 178.965 113.684 180.124C113.863 181.283 113.614 182.321 112.936 183.236C112.259 184.161 111.357 184.712 110.229 184.887C109.491 185.001 108.8 184.931 108.156 184.675C107.512 184.418 106.968 184.012 106.526 183.454ZM111.542 178.012C110.788 177.46 109.941 177.257 109.003 177.402C108.076 177.546 107.336 177.996 106.784 178.751C106.24 179.494 106.042 180.34 106.19 181.288C106.337 182.237 106.782 182.983 107.524 183.526C108.279 184.078 109.12 184.282 110.048 184.138C110.986 183.992 111.731 183.542 112.283 182.787C112.826 182.044 113.024 181.198 112.877 180.249C112.73 179.301 112.285 178.555 111.542 178.012Z" fill="white"/>
<path d="M93.9374 186.145C92.7748 186.141 91.7897 185.732 90.9821 184.918C90.1639 184.115 89.757 183.126 89.7616 181.953C89.7661 180.79 90.1805 179.8 91.005 178.982C91.8295 178.185 92.8177 177.789 93.9697 177.793C95.079 177.798 96.0216 178.159 96.7975 178.876C97.5734 179.594 98.0072 180.502 98.099 181.601L99.891 181.608L99.9049 177.992L100.705 177.995L100.674 185.995L99.8741 185.992L99.888 182.376L98.096 182.369C97.9958 183.457 97.555 184.357 96.7736 185.068C95.9815 185.79 95.0361 186.149 93.9374 186.145ZM96.3788 179.563C95.7201 178.899 94.916 178.565 93.9667 178.561C93.028 178.558 92.2268 178.885 91.5629 179.544C90.9097 180.192 90.5813 180.996 90.5776 181.956C90.5739 182.916 90.8961 183.723 91.5442 184.376C92.203 185.04 93.0017 185.374 93.9404 185.377C94.8897 185.381 95.6963 185.053 96.3602 184.395C97.0134 183.746 97.3418 182.942 97.3455 181.982C97.3492 181.022 97.027 180.216 96.3788 179.563Z" fill="white"/>
<path d="M78.2972 177.19L74.1068 183.583L73.2614 183.405L78.4422 175.569C78.92 174.852 79.4817 174.333 80.1271 174.011C80.7726 173.689 81.4133 173.622 82.0495 173.811L81.8946 174.547C81.4128 174.402 80.9344 174.448 80.4592 174.686C79.9841 174.924 79.5564 175.324 79.1764 175.887L78.9152 176.273L80.839 185.002L79.9935 184.824L78.2972 177.19Z" fill="white"/>
<path d="M65.4647 176.717L64.1374 180.609L63.3652 180.345L65.9474 172.773L66.7196 173.037L65.7074 176.005C66.4872 175.899 67.3112 175.995 68.1793 176.291C69.1483 176.622 69.8178 177.105 70.1878 177.738C70.5578 178.372 70.5981 179.113 70.3089 179.961L69.4671 182.429L68.7101 182.171L69.5519 179.702C69.9857 178.43 69.4556 177.539 67.9617 177.029C67.1441 176.749 66.3117 176.645 65.4647 176.717Z" fill="white"/>
<path d="M53.2898 173.838L52.4821 175.456L51.7523 175.091L55.3261 167.934L56.0559 168.299L55.2483 169.916C55.8395 169.52 56.4808 169.298 57.1723 169.25C57.8638 169.203 58.5435 169.346 59.2113 169.68C60.2226 170.185 60.9168 170.98 61.294 172.063C61.657 173.151 61.5763 174.22 61.0522 175.269C60.528 176.319 59.7247 177.02 58.6423 177.374C57.5551 177.736 56.5011 177.662 55.4803 177.152C54.8124 176.818 54.29 176.36 53.913 175.778C53.536 175.196 53.3283 174.549 53.2898 173.838ZM60.5287 172.306C60.2326 171.419 59.6601 170.763 58.811 170.338C57.9714 169.918 57.1082 169.856 56.2213 170.152C55.3486 170.443 54.6979 171.018 54.269 171.877C53.8402 172.736 53.7714 173.602 54.0627 174.475C54.3588 175.363 54.9266 176.016 55.7661 176.436C56.6152 176.861 57.4832 176.925 58.3701 176.629C59.2428 176.338 59.8935 175.763 60.3224 174.904C60.7512 174.045 60.82 173.179 60.5287 172.306Z" fill="white"/>
<path d="M49.0771 163.874C50.0744 164.551 50.6796 165.445 50.8926 166.557C51.1057 167.668 50.8802 168.714 50.2159 169.694C49.5516 170.674 48.6641 171.271 47.5534 171.484C46.4426 171.697 45.3886 171.465 44.3913 170.788C43.747 170.351 43.2693 169.801 42.958 169.138C42.6408 168.485 42.5395 167.816 42.6543 167.134L43.4125 167.184C43.3195 167.74 43.401 168.285 43.657 168.82C43.9043 169.349 44.2927 169.793 44.8222 170.152C45.6077 170.685 46.4595 170.864 47.3777 170.688C48.2811 170.515 49.0021 170.031 49.5407 169.236C50.0853 168.433 50.2709 167.579 50.0976 166.675C49.9243 165.771 49.4405 165.049 48.6462 164.51C48.1167 164.151 47.5607 163.954 46.9783 163.919C46.3871 163.879 45.8376 163.996 45.3297 164.27L44.9981 163.561C45.61 163.229 46.2854 163.088 47.0244 163.138C47.7574 163.198 48.4416 163.443 49.0771 163.874Z" fill="white"/>
<path d="M38.6602 166.505L33.6501 162.171L34.1626 161.578L36.3651 163.483L41.0814 158.022L41.6865 158.545L36.9701 164.006L39.1726 165.911L38.6602 166.505Z" fill="white"/>
<path d="M29.7289 153.004L27.0638 155.448L26.5128 154.846L32.4088 149.439L32.9599 150.041L30.2949 152.485L33.6661 156.167L36.3312 153.723L36.8714 154.313L30.9754 159.72L30.4351 159.13L33.1001 156.686L29.7289 153.004Z" fill="white"/>
<path d="M28.1093 146.443L19.7703 146.081L19.3648 145.506L25.9007 140.892L26.3708 141.559L20.9721 145.37L29.3018 145.718L29.7074 146.294L23.1715 150.907L22.7106 150.253L28.1093 146.443Z" fill="white"/>
<path d="M19.1447 137.798L20.6972 131.895L21.2118 132.854L19.7507 138.453L23.2174 136.589L23.5958 137.294L16.5497 141.083L16.1713 140.378L19.3702 138.658L14.2565 136.811L13.7268 135.825L19.1447 137.798Z" fill="white"/>
<path d="M18.1874 125.766C18.6076 126.862 18.5913 127.936 18.1386 128.99C17.6721 130.037 16.8912 130.772 15.7959 131.192C14.7006 131.613 13.6344 131.588 12.5973 131.118C11.5503 130.652 10.8147 129.866 10.3908 128.761C9.97443 127.675 9.9995 126.609 10.466 125.561C10.9187 124.507 11.6927 123.77 12.788 123.349C13.8734 122.932 14.9465 122.96 16.0073 123.433C17.0482 123.913 17.7749 124.69 18.1874 125.766ZM17.4096 128.653C17.7901 127.798 17.8104 126.928 17.4705 126.041C17.1344 125.165 16.5392 124.537 15.685 124.156C14.8447 123.782 13.9764 123.767 13.0802 124.111C12.184 124.455 11.5487 125.048 11.1743 125.889C10.7938 126.743 10.7716 127.609 11.1077 128.485C11.4476 129.372 12.0447 130.005 12.8989 130.385C13.7393 130.76 14.6076 130.775 15.5037 130.43C16.3999 130.086 17.0352 129.494 17.4096 128.653Z" fill="white"/>
<path d="M10.1357 114.326C10.2047 113.343 10.716 112.736 11.6697 112.504C12.3123 112.348 12.8821 112.435 13.3791 112.764C13.8735 113.083 14.2124 113.621 14.3959 114.378L15.3083 118.141L7.53423 120.029L6.69348 116.561C6.51753 115.836 6.57231 115.224 6.85781 114.727C7.13042 114.221 7.56733 113.896 8.16852 113.75C8.99776 113.548 9.65347 113.74 10.1357 114.326ZM7.45534 116.376L8.10758 119.066L10.7974 118.413L10.1452 115.723C10.0245 115.225 9.81358 114.876 9.51233 114.675C9.21109 114.473 8.8428 114.426 8.40745 114.531C7.99283 114.632 7.70418 114.845 7.54149 115.17C7.36592 115.487 7.3372 115.889 7.45534 116.376ZM14.3579 117.548L13.6341 114.563C13.5084 114.045 13.2872 113.676 12.9706 113.456C12.654 113.237 12.2728 113.181 11.8271 113.289C11.3917 113.395 11.09 113.622 10.922 113.97C10.7411 114.311 10.7122 114.735 10.8354 115.243L11.5593 118.228L14.3579 117.548Z" fill="white"/>
<path d="M8.34288 103.646C8.37781 104.039 8.27474 104.386 8.03368 104.686C7.78104 104.976 7.45817 105.138 7.06505 105.173C6.68256 105.207 6.34671 105.103 6.05749 104.861C5.76732 104.609 5.60477 104.286 5.56984 103.893C5.53585 103.51 5.63986 103.175 5.88187 102.885C6.12388 102.596 6.43613 102.434 6.81862 102.4C7.21173 102.365 7.55821 102.468 7.85806 102.709C8.14728 102.951 8.30889 103.264 8.34288 103.646Z" fill="white"/>
<path d="M4.13567 91.7962L4.52615 86.1777L12.5068 86.7332L12.4514 87.5313L5.25279 87.0302L4.97324 91.0525L8.81993 91.3203C10.0756 91.4077 10.9482 91.6983 11.4378 92.1922C11.9274 92.686 12.1099 93.367 11.9855 94.2351L11.2353 94.1829C11.3336 93.5375 11.1909 93.0518 10.8073 92.7257C10.4244 92.3889 9.74343 92.1865 8.76447 92.1183L4.13567 91.7962Z" fill="white"/>
<path d="M11.6438 82.1048L6.15648 75.8099L6.29356 75.1194L14.14 76.6794L13.9811 77.4798L7.49995 76.1912L12.9904 82.4704L12.8533 83.1609L5.00686 81.6009L5.16263 80.8162L11.6438 82.1048Z" fill="white"/>
<path d="M13.0625 66.4111L9.16128 65.1115L9.41885 64.3372L17.0087 66.8657L16.7512 67.64L13.7759 66.6488C13.8877 67.4281 13.7988 68.2529 13.5092 69.1234C13.186 70.095 12.7092 70.7681 12.0787 71.1427C11.4482 71.5173 10.708 71.563 9.85789 71.2798L7.38359 70.4555L7.6361 69.6964L10.1104 70.5207C11.3855 70.9455 12.2722 70.409 12.7705 68.911C13.0432 68.0912 13.1405 67.2579 13.0625 66.4111Z" fill="white"/>
<path d="M16.898 56.0451L13.6402 54.476L13.9938 53.7406L21.2014 57.2121L20.8478 57.9475L17.5899 56.3784L15.4264 60.8772L18.6842 62.4462L18.3375 63.1672L11.1299 59.6958L11.4766 58.9748L14.7345 60.5439L16.898 56.0451Z" fill="white"/>
<path d="M25.3199 50.4411C24.6723 51.4196 23.7885 52.0303 22.6683 52.2732C21.5452 52.5013 20.4946 52.2913 19.5166 51.643C18.5386 50.9948 17.9399 50.1116 17.7205 48.9936C17.4922 47.8697 17.7048 46.8141 18.3583 45.8268C19 44.8572 19.8824 44.2584 21.0055 44.0302C22.1256 43.7873 23.1747 43.99 24.1527 44.6382C25.1218 45.2806 25.722 46.1711 25.9533 47.3098C26.1668 48.4367 25.9557 49.4805 25.3199 50.4411ZM22.5195 51.4835C23.4357 51.2974 24.1558 50.8085 24.6797 50.0168C25.1978 49.2341 25.3637 48.3842 25.1774 47.4674C24.9942 46.5653 24.5025 45.8491 23.7023 45.3187C22.9021 44.7883 22.0513 44.6147 21.1499 44.7978C20.2336 44.9839 19.5165 45.4683 18.9984 46.2511C18.4745 47.0427 18.3056 47.897 18.4919 48.8139C18.6751 49.7159 19.1668 50.4322 19.967 50.9626C20.7672 51.4929 21.618 51.6666 22.5195 51.4835Z" fill="white"/>
<path d="M35.2889 37.766C34.4626 38.5989 33.4765 39.0251 32.3305 39.0443C31.1845 39.0485 30.1953 38.6371 29.3629 37.8101C28.5305 36.9832 28.1161 36 28.1195 34.8606C28.1153 33.7137 28.5301 32.72 29.364 31.8795C30.1828 31.054 31.1652 30.6393 32.3112 30.6351C33.4572 30.6158 34.4464 31.0197 35.2787 31.8467C36.1036 32.6661 36.5181 33.6568 36.5223 34.8188C36.5114 35.9657 36.1003 36.9481 35.2889 37.766ZM32.3389 38.2407C33.2738 38.2373 34.0755 37.8986 34.7441 37.2247C35.4052 36.5583 35.734 35.7573 35.7306 34.8217C35.7273 33.9011 35.3851 33.1026 34.7041 32.426C34.023 31.7494 33.2226 31.4127 32.3028 31.4161C31.3679 31.4195 30.5699 31.7544 29.9088 32.4207C29.2402 33.0947 28.9076 33.8995 28.911 34.8351C28.9144 35.7556 29.2566 36.5542 29.9376 37.2308C30.6186 37.9074 31.4191 38.2441 32.3389 38.2407Z" fill="white"/>
<path d="M35.2288 26.4041L40.4233 22.2939L40.9094 22.909L38.6258 24.7159L43.0992 30.378L42.4718 30.8744L37.9984 25.2124L35.7148 27.0193L35.2288 26.4041Z" fill="white"/>
<path d="M50.775 25.1066C49.8034 25.7054 48.7877 25.8866 47.7279 25.6501C46.6716 25.399 45.8248 24.7556 45.1875 23.72C44.4887 22.5844 44.1127 21.607 44.0595 20.7878C44.0132 19.9393 44.3494 18.949 45.0681 17.8169L45.5835 17.067C46.0822 16.3713 46.3727 15.9479 46.4551 15.7968C46.6542 15.4487 46.7778 15.1407 46.8259 14.8729C46.8685 14.5961 46.8213 14.3057 46.6843 14.0017L47.422 13.9793C47.6352 14.5496 47.6133 15.1144 47.3563 15.6737C47.2383 15.9094 47.1049 16.1607 46.9561 16.4278C46.836 16.6397 46.6391 16.9302 46.3653 17.2994L45.7713 18.1353C45.2803 18.8639 44.9866 19.496 44.8903 20.0315C44.794 20.5669 44.8786 21.1726 45.1442 21.8484C45.1567 21.1767 45.3344 20.5597 45.6773 19.9975C46.0202 19.4354 46.4641 18.9864 47.0089 18.6506C47.917 18.091 48.8551 17.9263 49.8234 18.1565C50.7917 18.3867 51.5609 18.9651 52.1311 19.8918C52.6958 20.8093 52.8493 21.7609 52.5916 22.7466C52.3522 23.7212 51.7466 24.5078 50.775 25.1066ZM50.3557 24.4253C51.1185 23.9552 51.6025 23.3374 51.8078 22.5719C52.0019 21.7882 51.8781 21.0375 51.4365 20.3199C50.9837 19.584 50.3758 19.1254 49.6129 18.944C48.85 18.7627 48.0917 18.9042 47.3381 19.3687C46.6479 19.794 46.1601 20.3954 45.8745 21.1728C45.5979 21.9447 45.6449 22.6926 46.0153 23.4166C46.4904 24.1887 47.1388 24.6725 47.9604 24.8678C48.7673 25.0597 49.5657 24.9122 50.3557 24.4253Z" fill="white"/>
<path d="M56.9112 19.6941L58.8578 11.5722L59.4998 11.2833L62.7782 18.5807L62.0341 18.9155L59.3261 12.8879L57.3941 21.0033L56.7521 21.2921L53.4737 13.9947L54.2032 13.6665L56.9112 19.6941Z" fill="white"/>
<path d="M68.7755 7.76436C69.8814 7.44181 70.9317 7.5577 71.9264 8.11204C72.9283 8.65315 73.5933 9.48697 73.9213 10.6135C74.2494 11.74 74.1377 12.806 73.5861 13.8113C73.0418 14.8034 72.2167 15.4607 71.1107 15.7832C70.3837 15.9953 69.6791 16.0174 68.997 15.8497C68.3222 15.6688 67.7366 15.3174 67.2402 14.7955L68.6538 19.6498L67.8858 19.8738L64.7543 9.12051L65.5223 8.89651L66.0412 10.6785C66.1797 9.97143 66.4865 9.3653 66.9615 8.86009C67.4438 8.34165 68.0484 7.97641 68.7755 7.76436ZM68.2532 14.7833C69.073 15.2331 69.9385 15.3251 70.8499 15.0593C71.751 14.7965 72.4266 14.255 72.8765 13.4349C73.3265 12.6148 73.4188 11.749 73.1533 10.8375C72.8879 9.92603 72.3453 9.2454 71.5255 8.79562C70.7057 8.34583 69.8452 8.25235 68.9441 8.51517C68.0328 8.78097 67.3521 9.32394 66.9021 10.1441C66.4594 10.951 66.3723 11.8153 66.6407 12.737C66.9091 13.6587 67.4466 14.3408 68.2532 14.7833Z" fill="white"/>
<path d="M84.2467 6.53438L83.9901 4.74469L84.7978 4.6287L85.9332 12.5477L85.1255 12.6637L84.8689 10.874C84.6083 11.5364 84.2073 12.0843 83.666 12.5177C83.1247 12.951 82.4845 13.2207 81.7454 13.3269C80.6262 13.4876 79.6034 13.2304 78.6768 12.5552C77.7594 11.868 77.2173 10.9436 77.0508 9.78216C76.8843 8.62071 77.1455 7.58642 77.8344 6.67929C78.5217 5.7616 79.4303 5.22165 80.56 5.05942C81.2991 4.95329 81.9893 5.03199 82.6305 5.29553C83.2717 5.55906 83.8105 5.97201 84.2467 6.53438ZM79.1675 11.919C79.916 12.4796 80.7601 12.6925 81.6998 12.5576C82.6289 12.4241 83.3739 11.9831 83.9346 11.2345C84.4863 10.4979 84.6941 9.65448 84.5578 8.70419C84.4216 7.75391 83.9852 7.00297 83.2488 6.45138C82.5003 5.89074 81.6615 5.67713 80.7324 5.81055C79.7927 5.94548 79.0425 6.38727 78.4817 7.13591C77.93 7.87247 77.7223 8.7159 77.8585 9.66618C77.9948 10.6165 78.4311 11.3674 79.1675 11.919Z" fill="white"/>
<path d="M96.8221 3.94666C97.9846 3.96462 98.9649 4.38515 99.763 5.20825C100.572 6.02085 100.967 7.01374 100.949 8.18693C100.931 9.34946 100.505 10.335 99.6714 11.1435C98.8378 11.9308 97.8451 12.3155 96.6933 12.2977C95.5841 12.2805 94.6457 11.9086 93.8781 11.182C93.1106 10.4554 92.6873 9.54211 92.6083 8.44209L90.8165 8.4144L90.7607 12.03L89.9608 12.0176L90.0842 4.01856L90.8841 4.03092L90.8283 7.64649L92.6201 7.67418C92.7329 6.58779 93.1841 5.69332 93.9737 4.99077C94.7741 4.27772 95.7236 3.92968 96.8221 3.94666ZM94.3047 10.5005C94.9558 11.172 95.7559 11.5151 96.7051 11.5298C97.6437 11.5443 98.4487 11.226 99.1201 10.575C99.7808 9.93442 100.118 9.13421 100.133 8.17433C100.148 7.21444 99.8352 6.40418 99.1947 5.74353C98.5436 5.07206 97.7488 4.72907 96.8103 4.71457C95.861 4.6999 95.0507 5.01808 94.3793 5.66912C93.7186 6.30966 93.3809 7.10987 93.3661 8.06975C93.3513 9.02964 93.6642 9.8399 94.3047 10.5005Z" fill="white"/>
<path d="M112.068 12.9585L116.331 6.61362L117.175 6.80147L111.905 14.5777C111.419 15.289 110.851 15.8019 110.202 16.1163C109.553 16.4307 108.911 16.49 108.277 16.2941L108.441 15.5601C108.921 15.7107 109.4 15.6699 109.878 15.4376C110.355 15.2052 110.788 14.8097 111.174 14.2511L111.44 13.8676L109.616 5.11778L110.459 5.30563L112.068 12.9585Z" fill="white"/>
<path d="M125.474 13.7168L126.859 9.84526L127.627 10.1206L124.932 17.6527L124.163 17.3774L125.22 14.4248C124.439 14.5186 123.616 14.4108 122.753 14.1013C121.789 13.7558 121.127 13.2634 120.766 12.6244C120.406 11.9853 120.377 11.2439 120.679 10.4003L121.557 7.94488L122.311 8.21482L121.432 10.6703C120.979 11.9357 121.495 12.8347 122.982 13.3674C123.795 13.6589 124.626 13.7754 125.474 13.7168Z" fill="white"/>
<path d="M137.486 16.6657L138.312 15.0572L139.037 15.4303L135.384 22.5475L134.659 22.1744L135.484 20.5659C134.889 20.9554 134.245 21.1702 133.553 21.2102C132.861 21.2503 132.183 21.0997 131.519 20.7583C130.513 20.2414 129.828 19.4393 129.463 18.3521C129.112 17.2603 129.204 16.1924 129.74 15.1486C130.276 14.1047 131.087 13.4122 132.173 13.0711C133.264 12.7205 134.317 12.8061 135.333 13.3279C135.997 13.6693 136.514 14.1331 136.884 14.7193C137.255 15.3056 137.455 15.9544 137.486 16.6657ZM130.231 18.1172C130.517 19.0079 131.082 19.6703 131.926 20.1043C132.761 20.5335 133.624 20.605 134.514 20.319C135.39 20.0376 136.047 19.4699 136.485 18.6158C136.923 17.7618 137.002 16.8965 136.72 16.0202C136.434 15.1295 135.874 14.4696 135.039 14.0404C134.194 13.6064 133.327 13.5324 132.437 13.8184C131.561 14.0998 130.904 14.6676 130.466 15.5216C130.027 16.3757 129.949 17.2409 130.231 18.1172Z" fill="white"/>
<path d="M141.677 26.7165C140.69 26.0251 140.098 25.1221 139.901 24.0075C139.704 22.893 139.945 21.8506 140.623 20.8803C141.302 19.9101 142.198 19.3266 143.312 19.1299C144.426 18.9332 145.476 19.1806 146.463 19.8721C147.101 20.3188 147.571 20.8756 147.872 21.5426C148.18 22.2008 148.271 22.8704 148.147 23.5514L147.389 23.4897C147.49 22.9355 147.417 22.3892 147.169 21.8507C146.929 21.3184 146.547 20.8686 146.023 20.5015C145.246 19.9569 144.396 19.7659 143.476 19.9284C142.57 20.0884 141.842 20.5617 141.292 21.3484C140.735 22.1439 140.537 22.9949 140.697 23.9014C140.858 24.8078 141.331 25.5364 142.117 26.0872C142.641 26.4543 143.194 26.6593 143.776 26.7021C144.367 26.7511 144.918 26.6423 145.43 26.3757L145.751 27.089C145.134 27.4124 144.457 27.5435 143.719 27.4823C142.987 27.4124 142.306 27.1571 141.677 26.7165Z" fill="white"/>
<path d="M151.884 24.0017L156.846 28.3893L156.327 28.977L154.146 27.0481L149.37 32.4577L148.771 31.9278L153.546 26.5182L151.365 24.5894L151.884 24.0017Z" fill="white"/>
<path d="M160.83 37.724L163.522 35.3092L164.066 35.917L158.112 41.2594L157.567 40.6517L160.259 38.2369L156.928 34.5187L154.236 36.9335L153.703 36.3376L159.657 30.9951L160.191 31.591L157.5 34.0058L160.83 37.724Z" fill="white"/>
<path d="M162.255 44.0997L170.59 44.5526L170.989 45.1325L164.403 49.6737L163.94 49.0016L169.38 45.2505L161.055 44.8108L160.655 44.2309L167.242 39.6897L167.695 40.3486L162.255 44.0997Z" fill="white"/>
<path d="M171.216 52.929L169.598 58.8144L169.094 57.8502L170.617 52.2671L167.13 54.0925L166.759 53.3835L173.847 49.6734L174.218 50.3824L171 52.0668L176.093 53.97L176.612 54.9626L171.216 52.929Z" fill="white"/>
<path d="M172.091 65.0392C171.684 63.939 171.712 62.8647 172.177 61.8161C172.655 60.7738 173.444 60.0485 174.544 59.6402C175.644 59.2319 176.71 59.2685 177.742 59.7503C178.783 60.2283 179.51 61.0224 179.921 62.1325C180.325 63.2227 180.288 64.2889 179.81 65.3312C179.346 66.3797 178.563 67.1082 177.463 67.5165C176.373 67.9212 175.301 67.8813 174.245 67.397C173.21 66.9053 172.492 66.1194 172.091 65.0392ZM172.902 62.1613C172.512 63.0116 172.482 63.8818 172.811 64.7719C173.138 65.6521 173.726 66.2871 174.576 66.6771C175.412 67.0607 176.28 67.0855 177.18 66.7514C178.08 66.4173 178.722 65.832 179.106 64.9954C179.496 64.1452 179.528 63.28 179.201 62.3998C178.871 61.5097 178.282 60.8696 177.432 60.4797C176.596 60.096 175.728 60.0712 174.828 60.4053C173.928 60.7394 173.286 61.3248 172.902 62.1613Z" fill="white"/>
<path d="M180.064 76.7025C179.984 77.6843 179.466 78.2856 178.51 78.5062C177.865 78.6549 177.296 78.5618 176.803 78.2267C176.313 77.9021 175.98 77.3604 175.805 76.6016L174.935 72.8285L182.731 71.0296L183.532 74.5065C183.699 75.2341 183.638 75.845 183.346 76.3391C183.068 76.8412 182.628 77.1619 182.025 77.301C181.193 77.4928 180.54 77.2933 180.064 76.7025ZM182.768 74.6828L182.146 71.9855L179.449 72.6079L180.071 75.3052C180.186 75.8041 180.393 76.156 180.692 76.3607C180.99 76.5653 181.358 76.6173 181.795 76.5166C182.21 76.4207 182.502 76.2112 182.668 75.8882C182.847 75.5731 182.88 75.1714 182.768 74.6828ZM175.879 73.4318L176.569 76.4253C176.689 76.945 176.905 77.3164 177.22 77.5395C177.534 77.7626 177.914 77.8226 178.361 77.7194C178.798 77.6187 179.102 77.3952 179.274 77.049C179.459 76.7108 179.492 76.2871 179.375 75.7777L178.685 72.7842L175.879 73.4318Z" fill="white"/>
<path d="M181.741 87.4128C181.71 87.0193 181.818 86.674 182.062 86.3769C182.318 86.0897 182.643 85.9308 183.036 85.9004C183.419 85.8707 183.754 85.9786 184.04 86.2239C184.327 86.4798 184.486 86.8046 184.517 87.1981C184.546 87.5809 184.438 87.9156 184.193 88.202C183.948 88.4884 183.634 88.6465 183.251 88.6761C182.857 88.7065 182.512 88.5995 182.215 88.355C181.928 88.1097 181.77 87.7956 181.741 87.4128Z" fill="white"/>
</svg>
