<?xml version="1.0" encoding="utf-8"?><svg viewBox="0 0 24 24" xmlns="http://www.w3.org/2000/svg" xmlns:xlink="http://www.w3.org/1999/xlink"><style>:root>svg{display:none}:root>svg:target{display:block}</style><svg viewBox="-4.5 0 20 20" id="arrow-left" xmlns="http://www.w3.org/2000/svg"><path d="M10.634.292a1.063 1.063 0 00-1.464 0L.607 8.556a1.95 1.95 0 000 2.827l8.625 8.325c.4.385 1.048.39 1.454.01a.975.975 0 00.01-1.425l-7.893-7.617a.975.975 0 010-1.414l7.83-7.557a.974.974 0 000-1.413" fill-rule="evenodd"/></svg><svg viewBox="-4.5 0 20 20" id="arrow-right" xmlns="http://www.w3.org/2000/svg"><path d="M.366 19.708c.405.39 1.06.39 1.464 0l8.563-8.264a1.95 1.95 0 000-2.827L1.768.292A1.063 1.063 0 00.314.282a.976.976 0 00-.011 1.425l7.894 7.617a.975.975 0 010 1.414L.366 18.295a.974.974 0 000 1.413" fill-rule="evenodd"/></svg></svg>